<svg width="80" height="80" viewBox="0 0 80 80" fill="none" xmlns="http://www.w3.org/2000/svg">
<rect x="3.05176e-05" width="80" height="80" rx="20" fill="#DAE6FF"/>
<g clip-path="url(#clip0_410_461)">
<path d="M39.3374 41C38.9716 41 38.6748 40.7031 38.6748 40.3373V33.7108C38.6748 33.3451 38.9716 33.0482 39.3374 33.0482H41.3254C42.7872 33.0482 43.976 34.237 43.976 35.6988C43.976 37.1606 42.7872 38.3494 41.3254 38.3494H40.0001V40.3373C40.0001 40.7031 39.7032 41 39.3374 41ZM40.0001 37.0241H41.3254C42.0569 37.0241 42.6507 36.429 42.6507 35.6988C42.6507 34.9685 42.0569 34.3735 41.3254 34.3735H40.0001V37.0241Z" fill="#00329B"/>
<path d="M46.3349 40.3625C46.1643 40.1991 46.0591 39.9675 46.0577 39.7075L46.058 34.373C46.058 33.8529 46.4804 33.4122 47 33.3901C47.5197 33.368 47.942 33.7728 47.942 34.2929L47.9418 39.6273C47.9417 40.1474 47.5194 40.5882 46.9997 40.6103C46.7412 40.6213 46.5054 40.5259 46.3349 40.3625Z" fill="#00329B"/>
<path d="M31.7353 38.2513C31.825 38.1613 31.9492 38.1057 32.0861 38.1048L34.8941 38.101C35.1679 38.1006 35.3907 38.3229 35.3911 38.5967C35.3915 38.8704 35.1693 39.0933 34.8955 39.0936L32.0875 39.0974C31.8137 39.0978 31.5909 38.8756 31.5905 38.6018C31.5903 38.4656 31.6456 38.3413 31.7353 38.2513Z" fill="#00329B"/>
<path d="M33.3728 33.0486C33.6657 33.0486 33.9227 33.2408 34.0075 33.5204L35.9946 40.1472C36.1006 40.4971 35.9017 40.8668 35.5505 40.9728C35.2006 41.0762 34.8309 40.8786 34.7249 40.5287L33.3724 36.0172L32.0186 40.5271C31.9139 40.8782 31.5414 41.0743 31.1942 40.9709C30.843 40.8648 30.6443 40.4964 30.7504 40.1452L32.7392 33.519C32.8227 33.2407 33.0799 33.0485 33.3728 33.0486Z" fill="#00329B"/>
<path d="M52.5904 47.6265H44.2013C43.9163 47.6265 43.6632 47.4436 43.5717 47.1732L42.9899 45.4238C42.8985 45.1601 42.6427 44.9759 42.3591 44.9759H37.641C37.3574 44.9759 37.1029 45.1601 37.0062 45.4344L36.427 47.1746C36.3369 47.4436 36.0838 47.6265 35.7989 47.6265H27.4097C25.5821 47.6265 24.0964 46.1395 24.0964 44.3132V32.3855C24.0964 30.5593 25.5821 29.0723 27.4097 29.0723H52.5904C54.418 29.0723 55.9037 30.5593 55.9037 32.3855V44.3132C55.9037 46.1395 54.418 47.6265 52.5904 47.6265ZM44.6784 46.3012H52.5904C53.6864 46.3012 54.5784 45.4093 54.5784 44.3132V32.3855C54.5784 31.2895 53.6864 30.3976 52.5904 30.3976H27.4097C26.3137 30.3976 25.4217 31.2895 25.4217 32.3855V44.3132C25.4217 45.4093 26.3137 46.3012 27.4097 46.3012H35.3217L35.7525 45.005C36.0387 44.1913 36.7955 43.6506 37.641 43.6506H42.3604C43.206 43.6506 43.9627 44.1913 44.245 44.9958L44.6784 46.3012Z" fill="#00329B"/>
<path d="M51.2651 30.3976C50.8993 30.3976 50.6025 30.1007 50.6025 29.7349V28.4096C50.6025 27.3136 49.7105 26.4217 48.6145 26.4217H31.3856C30.2896 26.4217 29.3977 27.3136 29.3977 28.4096V29.7349C29.3977 30.1007 29.1008 30.3976 28.735 30.3976C28.3692 30.3976 28.0723 30.1007 28.0723 29.7349V28.4096C28.0723 26.5834 29.558 25.0964 31.3856 25.0964H48.6145C50.4421 25.0964 51.9278 26.5834 51.9278 28.4096V29.7349C51.9278 30.1007 51.6309 30.3976 51.2651 30.3976Z" fill="#00329B"/>
<path d="M38.6748 56.9036C38.4746 56.9036 38.2745 56.8122 38.1446 56.6386C37.926 56.3457 37.9856 55.9308 38.2785 55.7108L40.2227 54.253L38.2772 52.7952C37.9843 52.5752 37.9246 52.1604 38.1433 51.8675C38.3646 51.5733 38.7795 51.5176 39.071 51.7349L41.7216 53.7229C41.8886 53.8475 41.9867 54.0449 41.9867 54.253C41.9867 54.4611 41.8886 54.6586 41.7216 54.7831L39.071 56.7711C38.9531 56.8599 38.8126 56.9036 38.6748 56.9036Z" fill="#00329B"/>
<path d="M40.0001 54.9156C38.6416 54.9156 37.2567 54.8653 35.885 54.7685C30.1862 54.3577 24.0964 52.9622 24.0964 50.2771C24.0964 49.9975 24.1693 49.7099 24.3125 49.4236C24.4768 49.0949 24.877 48.9637 25.2031 49.1281C25.5291 49.2924 25.6616 49.69 25.4986 50.0173C25.4483 50.1181 25.4217 50.2055 25.4217 50.2771C25.4217 51.2485 28.7761 52.9277 35.9791 53.4472C37.3296 53.5426 38.6708 53.6367 40.0279 53.5903C40.3407 53.5903 40.6415 53.5903 40.941 53.5784C41.324 53.5625 41.6156 53.8475 41.6315 54.2132C41.6461 54.579 41.3611 54.8878 40.9967 54.9024C40.668 54.9156 40.3407 54.9156 40.0001 54.9156Z" fill="#00329B"/>
<path d="M44.624 54.7168C44.2834 54.7168 43.9932 54.4544 43.9654 54.1085C43.9362 53.7441 44.2066 53.4233 44.571 53.3929C51.399 52.8349 54.5784 51.2035 54.5784 50.2771C54.5784 50.2055 54.5519 50.118 54.5015 50.0173C54.3385 49.69 54.471 49.2924 54.7971 49.128C55.1218 48.9624 55.522 49.0949 55.6877 49.4236C55.8308 49.7098 55.9037 49.9974 55.9037 50.2771C55.9037 53.5413 47.3131 54.4995 44.6797 54.7155C44.6625 54.7168 44.6426 54.7168 44.624 54.7168Z" fill="#00329B"/>
</g>
<defs>
<clipPath id="clip0_410_461">
<rect width="31.8072" height="31.8072" fill="white" transform="translate(24.0965 25.0964)"/>
</clipPath>
</defs>
</svg>
