<svg width="70" height="70" viewBox="0 0 70 70" fill="none" xmlns="http://www.w3.org/2000/svg">
<path d="M10.2688 29.7046H3.42294C2.51512 29.7046 1.64448 30.0392 1.00255 30.6347C0.36063 31.2303 0 32.0381 0 32.8804C0 33.7227 0.36063 34.5305 1.00255 35.126C1.64448 35.7216 2.51512 36.0562 3.42294 36.0562H10.2688C11.1766 36.0562 12.0473 35.7216 12.6892 35.126C13.3311 34.5305 13.6917 33.7227 13.6917 32.8804C13.6917 32.0381 13.3311 31.2303 12.6892 30.6347C12.0473 30.0392 11.1766 29.7046 10.2688 29.7046ZM67.7057 20.6852V20.4946C66.725 19.3824 65.4858 18.4904 64.0809 17.8855C62.6761 17.2805 61.1419 16.9782 59.5933 17.0012H32.4494C29.9343 16.9803 27.4983 17.8165 25.6036 19.3513V19.3513C23.8339 20.798 22.6704 22.7771 22.3175 24.9408L19.3054 40.82C19.0463 42.1913 19.1144 43.5986 19.5047 44.9429C19.895 46.2872 20.5981 47.5358 21.5645 48.6008C22.5259 49.6622 23.7253 50.5162 25.0792 51.1032C26.4331 51.6901 27.9087 51.9958 29.403 51.9989H56.5811C59.0225 52.0332 61.3972 51.2591 63.2791 49.8157C65.161 48.3723 66.427 46.354 66.8499 44.1228L69.8621 28.2437C70.0994 26.914 70.0298 25.5527 69.6581 24.2497C69.2864 22.9468 68.6209 21.7319 67.7057 20.6852V20.6852ZM58.3268 23.3529L46.6889 32.1182C46.0008 32.6327 45.1248 32.8804 44.2444 32.8094C43.364 32.7383 42.5473 32.3541 41.9652 31.7371L33.9898 23.3529H58.3268ZM59.9699 42.9478C59.8313 43.6935 59.4103 44.3687 58.7828 44.852C58.1553 45.3352 57.3624 45.5947 56.5469 45.5837H29.403C28.9059 45.5799 28.4157 45.4756 27.9665 45.2781C27.5172 45.0807 27.1197 44.7948 26.8016 44.4404C26.4827 44.0879 26.2501 43.6752 26.1201 43.2311C25.9901 42.7869 25.9657 42.3218 26.0485 41.868L28.7869 27.4815L36.8308 35.9292C38.5817 37.7755 41.0342 38.9222 43.6753 39.1294C46.3165 39.3365 48.9417 38.5881 51.0018 37.0407L62.7767 28.1166L59.9699 42.9478ZM13.6917 17.0012H3.42294C2.51512 17.0012 1.64448 17.3358 1.00255 17.9314C0.36063 18.527 0 19.3348 0 20.1771C0 21.0193 0.36063 21.8271 1.00255 22.4227C1.64448 23.0183 2.51512 23.3529 3.42294 23.3529H13.6917C14.5996 23.3529 15.4702 23.0183 16.1121 22.4227C16.7541 21.8271 17.1147 21.0193 17.1147 20.1771C17.1147 19.3348 16.7541 18.527 16.1121 17.9314C15.4702 17.3358 14.5996 17.0012 13.6917 17.0012Z" fill="white"/>
</svg>
