<svg width="70" height="70" viewBox="0 0 70 70" fill="none" xmlns="http://www.w3.org/2000/svg">
<path d="M34.9999 10C29.0636 10.0003 23.3211 12.1662 18.7999 16.1104C14.2787 20.0545 11.2738 25.5194 10.3229 31.5272C9.37199 37.5351 10.5371 43.6939 13.6098 48.9015C16.6825 54.1092 21.4622 58.0259 27.0937 59.9509C28.3437 60.1753 28.8125 59.4063 28.8125 58.7334C28.8125 58.1247 28.7812 56.1061 28.7812 53.9594C22.5 55.1449 20.875 52.3895 20.375 50.9477C19.8202 49.5454 18.9407 48.3027 17.8125 47.327C16.9375 46.8464 15.6875 45.6609 17.7812 45.629C18.5807 45.7179 19.3475 46.0031 20.0166 46.4605C20.6857 46.9178 21.2374 47.5338 21.625 48.2562C21.9669 48.886 22.4267 49.4404 22.978 49.8877C23.5292 50.335 24.1612 50.6663 24.8375 50.8628C25.5139 51.0592 26.2215 51.1169 26.9196 51.0325C27.6178 50.9481 28.2929 50.7232 28.9061 50.3709C29.0144 49.0678 29.5808 47.8494 30.4999 46.9426C24.9375 46.3018 19.125 44.0909 19.125 34.2867C19.0899 31.7392 20.0067 29.2745 21.6875 27.398C20.9232 25.1839 21.0126 22.7542 21.9375 20.6054C21.9375 20.6054 24.0311 19.9326 28.8124 23.2328C32.9031 22.0792 37.2217 22.0792 41.3123 23.2328C46.0935 19.9006 48.1873 20.6054 48.1873 20.6054C49.1123 22.7541 49.2017 25.184 48.4373 27.398C50.1231 29.2713 51.0408 31.7381 50.9998 34.2867C50.9998 44.123 45.156 46.3018 39.5936 46.9426C40.1902 47.5626 40.6497 48.307 40.9409 49.1252C41.2321 49.9435 41.3481 50.8163 41.2811 51.6846C41.2811 55.113 41.2498 57.8684 41.2498 58.7335C41.2498 59.4064 41.7186 60.2074 42.9686 59.951C48.5902 58.0103 53.3562 54.0844 56.4158 48.8741C59.4754 43.6638 60.6294 37.5082 59.6719 31.5061C58.7144 25.5041 55.7077 20.0463 51.1884 16.1069C46.6692 12.1676 40.9316 10.0032 34.9999 10V10Z" fill="white"/>
</svg>
