<svg width="70" height="70" viewBox="0 0 70 70" fill="none" xmlns="http://www.w3.org/2000/svg">
<path d="M54.2725 9.56201H13.6475C11.0694 9.56201 8.96001 11.6714 8.96001 14.2495V54.8745C8.96001 57.4526 11.0694 59.562 13.6475 59.562H54.2725C56.8506 59.562 58.96 57.4526 58.96 54.8745V14.2495C58.96 11.6714 56.8506 9.56201 54.2725 9.56201ZM27.71 50.187H21.46V28.312H27.71V50.187ZM24.585 25.187C22.8569 25.187 21.46 23.7901 21.46 22.062C21.46 20.3339 22.8569 18.937 24.585 18.937C26.3131 18.937 27.71 20.3339 27.71 22.062C27.71 23.7901 26.3131 25.187 24.585 25.187ZM49.585 50.187H43.335V37.687C43.335 35.9589 41.9381 34.562 40.21 34.562C38.4819 34.562 37.085 35.9589 37.085 37.687V50.187H30.835V28.312H37.085V32.1886C38.3741 30.4214 40.3459 28.312 42.5538 28.312C46.4413 28.312 49.585 31.8089 49.585 36.1245V50.187Z" fill="white"/>
</svg>
