<svg width="81" height="80" viewBox="0 0 81 80" fill="none" xmlns="http://www.w3.org/2000/svg">
<rect x="0.333344" width="80" height="80" rx="20" fill="#FFE5DA"/>
<g clip-path="url(#clip0_410_476)">
<path d="M47.4719 24.6084H34.1587C33.6157 24.6091 33.0951 24.8252 32.7111 25.2091C32.3272 25.5931 32.1112 26.1136 32.1105 26.6566V54.3072C32.1112 54.8502 32.3272 55.3708 32.7111 55.7547C33.0951 56.1387 33.6157 56.3547 34.1587 56.3554H47.4719C48.0149 56.3547 48.5355 56.1387 48.9194 55.7547C49.3034 55.3708 49.5194 54.8502 49.5201 54.3072V26.6566C49.5194 26.1136 49.3034 25.5931 48.9194 25.2091C48.5355 24.8252 48.0149 24.6091 47.4719 24.6084ZM43.2117 25.6325L42.9236 26.6566H38.6551L38.3991 25.6325H43.2117ZM48.496 54.3072C48.4956 54.5787 48.3876 54.839 48.1957 55.031C48.0037 55.223 47.7434 55.331 47.4719 55.3313H34.1587C33.8872 55.331 33.6269 55.223 33.4349 55.031C33.2429 54.839 33.1349 54.5787 33.1346 54.3072V26.6566C33.1349 26.3851 33.2429 26.1248 33.4349 25.9329C33.6269 25.7409 33.8872 25.6329 34.1587 25.6325H37.343L37.7584 27.2928C37.786 27.4036 37.85 27.502 37.94 27.5722C38.0299 27.6425 38.1409 27.6807 38.255 27.6807H43.3115C43.4231 27.6807 43.5316 27.6443 43.6206 27.5769C43.7096 27.5095 43.7741 27.415 43.8044 27.3076L44.2754 25.6325H47.4719C47.7434 25.6329 48.0037 25.7409 48.1957 25.9329C48.3876 26.1248 48.4956 26.3851 48.496 26.6566V54.3072Z" fill="#BB3800"/>
<path d="M38.255 53.2831H34.6707C34.5349 53.2831 34.4046 53.3371 34.3086 53.4331C34.2126 53.5291 34.1586 53.6594 34.1586 53.7952C34.1586 53.931 34.2126 54.0612 34.3086 54.1572C34.4046 54.2533 34.5349 54.3072 34.6707 54.3072H38.255C38.3908 54.3072 38.5211 54.2533 38.6171 54.1572C38.7131 54.0612 38.7671 53.931 38.7671 53.7952C38.7671 53.6594 38.7131 53.5291 38.6171 53.4331C38.5211 53.3371 38.3908 53.2831 38.255 53.2831Z" fill="#BB3800"/>
<path d="M40.3032 53.2831H39.7912C39.6554 53.2831 39.5251 53.3371 39.4291 53.4331C39.3331 53.5291 39.2791 53.6594 39.2791 53.7952C39.2791 53.931 39.3331 54.0612 39.4291 54.1572C39.5251 54.2533 39.6554 54.3072 39.7912 54.3072H40.3032C40.439 54.3072 40.5693 54.2533 40.6653 54.1572C40.7613 54.0612 40.8153 53.931 40.8153 53.7952C40.8153 53.6594 40.7613 53.5291 40.6653 53.4331C40.5693 53.3371 40.439 53.2831 40.3032 53.2831Z" fill="#BB3800"/>
<path d="M42.6149 37.4826C42.5572 37.448 42.4933 37.4251 42.4268 37.4152C42.3603 37.4053 42.2925 37.4086 42.2272 37.4249C42.162 37.4412 42.1006 37.4702 42.0466 37.5103C41.9926 37.5503 41.947 37.6006 41.9124 37.6582L38.8401 42.7787C38.7702 42.8952 38.7494 43.0346 38.7824 43.1664C38.8153 43.2981 38.8992 43.4114 39.0157 43.4813C39.1321 43.5511 39.2716 43.5719 39.4033 43.5389C39.5351 43.506 39.6484 43.4221 39.7182 43.3056L42.7905 38.1851C42.8251 38.1275 42.848 38.0636 42.8579 37.9971C42.8678 37.9305 42.8645 37.8627 42.8482 37.7975C42.8319 37.7323 42.8029 37.6709 42.7629 37.6169C42.7228 37.5628 42.6725 37.5172 42.6149 37.4826Z" fill="#BB3800"/>
<path d="M44.2874 37.6016C44.2454 37.5491 44.1934 37.5054 44.1345 37.473C44.0756 37.4406 44.0108 37.42 43.944 37.4126C43.809 37.3977 43.6736 37.4369 43.5675 37.5218C43.4615 37.6067 43.3935 37.7302 43.3785 37.8652C43.3635 38.0002 43.4028 38.1357 43.4877 38.2417L45.2799 40.4819L43.4877 42.7221C43.4028 42.8282 43.3635 42.9636 43.3785 43.0986C43.3935 43.2336 43.4615 43.3571 43.5675 43.442C43.6736 43.5269 43.809 43.5661 43.944 43.5512C44.079 43.5362 44.2025 43.4682 44.2874 43.3622L46.3356 40.8019C46.4083 40.7111 46.4479 40.5982 46.4479 40.4819C46.4479 40.3656 46.4083 40.2527 46.3356 40.1619L44.2874 37.6016Z" fill="#BB3800"/>
<path d="M37.3432 43.3622C37.428 43.4683 37.5516 43.5362 37.6866 43.5512C37.8216 43.5662 37.957 43.5269 38.063 43.442C38.1691 43.3571 38.2371 43.2336 38.252 43.0986C38.267 42.9636 38.2277 42.8282 38.1428 42.7221L36.3507 40.4819L38.1428 38.2417C38.1849 38.1892 38.2161 38.1289 38.2349 38.0643C38.2536 37.9998 38.2594 37.9321 38.252 37.8653C38.2446 37.7984 38.2241 37.7337 38.1917 37.6748C38.1593 37.6158 38.1155 37.5639 38.063 37.5218C38.0105 37.4798 37.9503 37.4485 37.8857 37.4298C37.8211 37.4111 37.7534 37.4053 37.6866 37.4127C37.6197 37.4201 37.555 37.4406 37.4961 37.473C37.4371 37.5054 37.3852 37.5492 37.3432 37.6017L35.295 40.1619C35.2223 40.2527 35.1826 40.3656 35.1826 40.4819C35.1826 40.5983 35.2223 40.7111 35.295 40.802L37.3432 43.3622Z" fill="#BB3800"/>
</g>
<defs>
<clipPath id="clip0_410_476">
<rect width="32.7711" height="32.7711" fill="white" transform="translate(24.4297 24.0964)"/>
</clipPath>
</defs>
</svg>
