<svg width="81" height="80" viewBox="0 0 81 80" fill="none" xmlns="http://www.w3.org/2000/svg">
<path d="M0.666687 20C0.666687 8.95431 9.62099 0 20.6667 0H60.6667C71.7124 0 80.6667 8.95431 80.6667 20V60C80.6667 71.0457 71.7124 80 60.6667 80H20.6667C9.62099 80 0.666687 71.0457 0.666687 60V20Z" fill="#ECFFDA"/>
<g clip-path="url(#clip0_410_447)">
<path d="M55.3363 39.1895L41.7256 25.5789C40.7697 24.623 39.499 24.0964 38.1472 24.0964H27.6547C26.0599 24.0964 24.7631 25.3932 24.7631 26.988V37.4805C24.7631 38.8324 25.2897 40.1031 26.2456 41.0589L39.8562 54.6696C40.6405 55.4539 41.7263 55.9036 42.8353 55.9036C43.9443 55.9036 45.0301 55.4539 45.8144 54.6696L55.3362 45.1478C56.1206 44.3635 56.5702 43.2777 56.5702 42.1687C56.5702 41.0597 56.1206 39.9739 55.3363 39.1895ZM54.3141 44.1256L44.7923 53.6474C43.7616 54.6781 41.9092 54.6781 40.8785 53.6474L27.2677 40.0367C26.5851 39.354 26.2088 38.4462 26.2088 37.4804V26.988C26.2088 26.191 26.8576 25.5422 27.6546 25.5422H38.1472C39.1129 25.5422 40.0208 25.9185 40.7034 26.6011L54.3141 40.2118C54.8294 40.7271 55.1245 41.4402 55.1245 42.1687C55.1245 42.8972 54.8294 43.6102 54.3141 44.1256Z" fill="#5FC400"/>
<path d="M30.5462 26.988C28.9514 26.988 27.6546 28.2848 27.6546 29.8796C27.6546 31.4744 28.9514 32.7711 30.5462 32.7711C32.1409 32.7711 33.4378 31.4743 33.4378 29.8795C33.4378 28.2847 32.141 26.988 30.5462 26.988ZM30.5462 31.3253C29.7492 31.3253 29.1004 30.6766 29.1004 29.8795C29.1004 29.0825 29.7492 28.4337 30.5462 28.4337C31.3432 28.4337 31.9919 29.0825 31.9919 29.8795C31.992 30.6766 31.3432 31.3253 30.5462 31.3253Z" fill="#5FC400"/>
<path d="M37.2456 38.6241C38.0913 37.7784 38.0913 36.4025 37.2456 35.5568C36.964 35.2752 36.964 34.8163 37.2456 34.5353L37.7582 34.0235C38.0286 33.7503 38.5051 33.7503 38.7797 34.0235C38.9159 34.1605 38.9915 34.3419 38.9915 34.5346C38.9915 34.7281 38.9167 34.9088 38.7797 35.045C38.4973 35.3274 38.4973 35.7849 38.779 36.068C39.0614 36.3504 39.5195 36.3496 39.8019 36.0686C40.2114 35.6592 40.4373 35.1142 40.4373 34.5346C40.4373 33.9557 40.2114 33.4108 39.8019 33.0013C38.9831 32.1817 37.5528 32.1838 36.7353 33.0006L36.2228 33.5124C35.3785 34.3589 35.3785 35.734 36.2234 36.5791C36.5051 36.8615 36.5051 37.3196 36.2234 37.602L35.7116 38.1132C35.4399 38.3871 34.9647 38.3857 34.6901 38.1132C34.5539 37.9762 34.4783 37.7948 34.4783 37.602C34.4783 37.4086 34.5531 37.2272 34.6901 37.0916C34.9725 36.8092 34.9725 36.3518 34.6908 36.0687C34.4084 35.7863 33.9503 35.787 33.6679 36.068C33.2584 36.4775 33.0325 37.0224 33.0325 37.602C33.0325 38.1809 33.2584 38.7259 33.6679 39.1353C34.0773 39.5448 34.6223 39.7707 35.2012 39.7707C35.7808 39.7707 36.3258 39.5448 36.7345 39.1353L37.2456 38.6241Z" fill="#5FC400"/>
<path d="M41.8463 41.1797C42.1287 40.8973 42.1287 40.4398 41.8463 40.1575L40.8241 39.1353L42.3575 37.602L43.8915 39.1353C44.1739 39.4177 44.6313 39.4177 44.9137 39.1353C45.1961 38.8529 45.1961 38.3954 44.9137 38.1131L42.8685 36.0686C42.5861 35.7862 42.1287 35.7862 41.8463 36.0686L36.7352 41.1797C36.4528 41.4621 36.4528 41.9196 36.7352 42.2019L38.7797 44.2471C38.9209 44.3882 39.1059 44.4588 39.2908 44.4588C39.4758 44.4588 39.6607 44.3882 39.802 44.2471C40.0844 43.9647 40.0844 43.5072 39.802 43.2249L38.2686 41.6909L39.802 40.1575L40.8241 41.1797C40.9653 41.3209 41.1503 41.3915 41.3353 41.3915C41.5202 41.3915 41.7052 41.3208 41.8463 41.1797Z" fill="#5FC400"/>
<path d="M44.9136 41.1789C44.9136 41.1796 44.9136 41.1796 44.9136 41.1796L41.8456 44.2469C41.002 45.0926 41.002 46.4678 41.8463 47.3135C42.2691 47.7364 42.8247 47.9482 43.3796 47.9482C43.9352 47.9482 44.4908 47.7364 44.9136 47.3135L47.9802 44.2469C48.8259 43.4012 48.8259 42.0253 47.9802 41.1788C47.1346 40.3346 45.7594 40.3346 44.9136 41.1789ZM46.9581 43.2248L43.8915 46.2914C43.6098 46.5731 43.1509 46.5745 42.8693 46.2914C42.5876 46.0098 42.5876 45.5509 42.8686 45.2692L45.9359 42.2026C46.2169 41.9202 46.6772 41.9209 46.9581 42.2019C47.2398 42.4842 47.2398 42.9424 46.9581 43.2248Z" fill="#5FC400"/>
</g>
<defs>
<clipPath id="clip0_410_447">
<rect width="31.8072" height="31.8072" fill="white" transform="translate(24.7631 24.0964)"/>
</clipPath>
</defs>
</svg>
