<svg width="120" height="120" viewBox="0 0 120 120" fill="none" xmlns="http://www.w3.org/2000/svg">
<path fill-rule="evenodd" clip-rule="evenodd" d="M62.0134 0.0270154C73.3706 -0.512246 83.3287 7.12036 92.9187 14.0946C103.151 21.536 115.576 28.2484 119.071 41.5216C122.55 54.7387 115.501 68.1581 110.451 80.6959C105.971 91.8193 100.474 102.377 91.7173 109.434C83.0492 116.419 72.5404 121.211 62.0134 119.731C52.0471 118.33 46.0802 107.088 37.1834 101.767C25.928 95.035 9.59317 97.0928 3.19381 84.551C-3.21424 71.9922 1.07979 55.1934 6.79134 42.203C12.0417 30.2617 23.1968 24.369 32.9192 16.9435C42.1929 9.86068 50.869 0.556173 62.0134 0.0270154Z" fill="#608AF5"/>
</svg>
