<svg width="80" height="80" viewBox="0 0 80 80" fill="none" xmlns="http://www.w3.org/2000/svg">
<rect width="80" height="80" rx="20" fill="#EFEAFF"/>
<path d="M23.9458 27.1837H25.1807V28.4187H23.9458V27.1837Z" fill="#4628A4"/>
<path d="M26.4157 27.1837H27.6506V28.4187H26.4157V27.1837Z" fill="#4628A4"/>
<path d="M28.8856 27.1837H30.1205V28.4187H28.8856V27.1837Z" fill="#4628A4"/>
<path d="M24.5633 42.6205H38.1476C38.3114 42.6205 38.4684 42.5554 38.5842 42.4396C38.7 42.3238 38.7651 42.1668 38.7651 42.003V32.1235C38.7651 31.9597 38.7 31.8027 38.5842 31.6869C38.4684 31.5711 38.3114 31.506 38.1476 31.506H24.5633C24.3995 31.506 24.2425 31.5711 24.1267 31.6869C24.0109 31.8027 23.9458 31.9597 23.9458 32.1235V42.003C23.9458 42.1668 24.0109 42.3238 24.1267 42.4396C24.2425 42.5554 24.3995 42.6205 24.5633 42.6205ZM25.1807 32.741H37.5301V41.3855H25.1807V32.741Z" fill="#4628A4"/>
<path d="M24.5633 54.3524H38.1476C38.3114 54.3524 38.4684 54.2873 38.5842 54.1715C38.7 54.0557 38.7651 53.8987 38.7651 53.7349V44.4729C38.7651 44.3091 38.7 44.1521 38.5842 44.0363C38.4684 43.9205 38.3114 43.8554 38.1476 43.8554H24.5633C24.3995 43.8554 24.2425 43.9205 24.1267 44.0363C24.0109 44.1521 23.9458 44.3091 23.9458 44.4729V53.7349C23.9458 53.8987 24.0109 54.0557 24.1267 54.1715C24.2425 54.2873 24.3995 54.3524 24.5633 54.3524ZM25.1807 45.0903H37.5301V53.1175H25.1807V45.0903Z" fill="#4628A4"/>
<path d="M49.2621 54.3524H50.497V55.5873H49.2621V54.3524Z" fill="#4628A4"/>
<path d="M54.2018 54.3524H55.4368V55.5873H54.2018V54.3524Z" fill="#4628A4"/>
<path d="M52.3494 58.6747C52.0219 58.6747 51.7078 58.5446 51.4762 58.313C51.2446 58.0814 51.1145 57.7673 51.1145 57.4398H49.8795C49.8795 58.0948 50.1397 58.723 50.6029 59.1862C51.0661 59.6494 51.6943 59.9096 52.3494 59.9096C53.0044 59.9096 53.6327 59.6494 54.0959 59.1862C54.5591 58.723 54.8193 58.0948 54.8193 57.4398H53.5843C53.5843 57.7673 53.4542 58.0814 53.2226 58.313C52.991 58.5446 52.6769 58.6747 52.3494 58.6747Z" fill="#4628A4"/>
<path d="M34.134 36.5273L29.8117 34.0574C29.7178 34.0032 29.6112 33.9746 29.5027 33.9747C29.3942 33.9747 29.2876 34.0034 29.1937 34.0577C29.0998 34.112 29.0219 34.1902 28.9678 34.2842C28.9137 34.3782 28.8853 34.4849 28.8855 34.5934V39.5331C28.8853 39.6416 28.9137 39.7482 28.9678 39.8423C29.0219 39.9363 29.0998 40.0144 29.1937 40.0688C29.2876 40.1231 29.3942 40.1517 29.5027 40.1518C29.6112 40.1519 29.7178 40.1233 29.8117 40.0691L34.134 37.5992C34.2285 37.5452 34.307 37.4671 34.3615 37.373C34.4161 37.2789 34.4449 37.172 34.4449 37.0632C34.4449 36.9544 34.4161 36.8476 34.3615 36.7534C34.307 36.6593 34.2285 36.5813 34.134 36.5273ZM30.1205 38.4686V35.6579L32.5805 37.0632L30.1205 38.4686Z" fill="#4628A4"/>
<path d="M52.9669 43.2379C53.0843 43.238 53.1993 43.2046 53.2984 43.1416C53.3975 43.0785 53.4766 42.9886 53.5264 42.8822C53.5762 42.7758 53.5946 42.6575 53.5795 42.541C53.5644 42.4246 53.5164 42.3148 53.4411 42.2247L50.3537 38.5199C50.2988 38.4539 50.2307 38.4001 50.1539 38.362C50.077 38.3238 49.993 38.3021 49.9073 38.2982C49.8215 38.293 49.7355 38.3064 49.6554 38.3375C49.5752 38.3686 49.5028 38.4167 49.443 38.4785L48.5371 39.3849L47.2608 37.8968C47.2012 37.832 47.1288 37.7802 47.0481 37.7448C46.9674 37.7094 46.8803 37.6911 46.7922 37.6911C46.7041 37.6911 46.6169 37.7094 46.5362 37.7448C46.4556 37.7802 46.3831 37.832 46.3235 37.8968L42.6187 42.2191C42.542 42.3088 42.4926 42.4185 42.4763 42.5354C42.4601 42.6523 42.4777 42.7713 42.527 42.8785C42.5763 42.9857 42.6553 43.0765 42.7546 43.1402C42.8539 43.2039 42.9694 43.2378 43.0874 43.2379H52.9669ZM44.4297 42.003L46.7922 39.2466L49.1546 42.003H44.4297ZM49.8381 39.8301L51.6486 42.003H50.781L49.3429 40.3253L49.8381 39.8301Z" fill="#4628A4"/>
<path d="M57.9066 25.3313H22.0934C21.9296 25.3313 21.7726 25.3964 21.6568 25.5122C21.541 25.628 21.4759 25.785 21.4759 25.9488V56.2048C21.4759 56.3686 21.541 56.5256 21.6568 56.6414C21.7726 56.7572 21.9296 56.8223 22.0934 56.8223H46.2062C46.3659 58.3974 47.1245 59.851 48.3253 60.8828C49.5261 61.9146 51.0773 62.4457 52.6586 62.3665C54.2398 62.2872 55.7301 61.6036 56.8217 60.4569C57.9133 59.3102 58.5228 57.788 58.5241 56.2048V25.9488C58.5241 25.785 58.4591 25.628 58.3433 25.5122C58.2275 25.3964 58.0704 25.3313 57.9066 25.3313ZM52.3494 61.1446C51.3724 61.1446 50.4174 60.8549 49.605 60.3121C48.7927 59.7693 48.1596 58.9978 47.7857 58.0952C47.4118 57.1926 47.314 56.1993 47.5046 55.2411C47.6952 54.2829 48.1656 53.4027 48.8565 52.7119C49.5473 52.021 50.4275 51.5506 51.3857 51.36C52.3439 51.1694 53.3372 51.2672 54.2398 51.6411C55.1424 52.015 55.9139 52.6481 56.4567 53.4604C56.9995 54.2728 57.2892 55.2278 57.2892 56.2048C57.2877 57.5145 56.7668 58.7701 55.8407 59.6961C54.9147 60.6222 53.6591 61.1431 52.3494 61.1446ZM47.0102 53.1175H41.235V32.741H54.8193V50.5494C53.43 49.9393 51.8643 49.864 50.4229 50.338C48.9816 50.812 47.7661 51.8019 47.0102 53.1175ZM57.2892 52.5161C56.9379 52.0469 56.5221 51.6297 56.0542 51.2768V32.1235C56.0542 31.9597 55.9892 31.8027 55.8734 31.6869C55.7576 31.5711 55.6005 31.506 55.4368 31.506H40.6175C40.4537 31.506 40.2967 31.5711 40.1809 31.6869C40.0651 31.8027 40 31.9597 40 32.1235V53.7349C40 53.8987 40.0651 54.0558 40.1809 54.1716C40.2967 54.2874 40.4537 54.3524 40.6175 54.3524H46.4594C46.3326 54.7542 46.2477 55.1681 46.2062 55.5874H22.7109V30.2711H57.2892V52.5161ZM57.2892 29.0361H22.7109V26.5663H57.2892V29.0361Z" fill="#4628A4"/>
<path d="M26.4157 46.3253H36.2952V47.5602H26.4157V46.3253Z" fill="#4628A4"/>
<path d="M26.4157 48.7952H36.2952V50.0301H26.4157V48.7952Z" fill="#4628A4"/>
</svg>
