<svg width="70" height="70" viewBox="0 0 70 70" fill="none" xmlns="http://www.w3.org/2000/svg">
<path d="M52.7095 17.2656C48.0084 12.5781 41.7574 10 35.0934 10C21.373 10 10.2057 21.1125 10.2057 34.775C10.2057 39.1406 11.3535 43.4078 13.533 47.1578L10 60L23.1991 56.5531C26.8404 58.525 30.9324 59.5703 35.0934 59.5703H35.1028C48.8233 59.5703 60 48.4563 60 34.7953C60 28.1734 57.4092 21.9531 52.708 17.2656H52.7095ZM35.1044 55.3906C31.3846 55.3906 27.7433 54.3953 24.5636 52.5203L23.8084 52.0703L15.9778 54.1109L18.0677 46.5125L17.5762 45.7313C15.4957 42.4594 14.406 38.6703 14.406 34.775C14.406 23.4172 23.689 14.1797 35.1138 14.1797C40.6394 14.1797 45.8399 16.3281 49.7466 20.2141C53.6532 24.1109 55.8013 29.2766 55.8013 34.7844C55.7919 46.1516 46.5072 55.3906 35.1044 55.3906V55.3906ZM46.4491 39.9609C45.8305 39.6484 42.7686 38.1547 42.2002 37.9484C41.6318 37.7422 41.2188 37.6359 40.7964 38.2609C40.385 38.8766 39.1869 40.2734 38.8242 40.6922C38.4615 41.1016 38.0988 41.1609 37.4801 40.8484C36.8615 40.5359 34.85 39.8813 32.4743 37.7719C30.6293 36.1313 29.3732 34.1 29.0105 33.4844C28.6477 32.8687 28.9712 32.5266 29.2852 32.225C29.5694 31.9516 29.9039 31.5016 30.2179 31.1406C30.532 30.7797 30.6293 30.525 30.8366 30.1063C31.0423 29.6969 30.9449 29.3344 30.7879 29.0219C30.6309 28.7094 29.3842 25.6625 28.8738 24.4219C28.373 23.2109 27.8532 23.3766 27.4701 23.3578C27.1074 23.3391 26.6944 23.3391 26.283 23.3391C25.8716 23.3391 25.1933 23.4953 24.6249 24.1109C24.0549 24.7266 22.447 26.2297 22.447 29.2766C22.447 32.3234 24.6751 35.2625 24.9892 35.6828C25.3032 36.0922 29.3763 42.3531 35.6179 45.0281C37.1001 45.6625 38.2574 46.0437 39.1603 46.3359C40.6519 46.8047 42.007 46.7359 43.0763 46.5797C44.2728 46.4031 46.7569 45.0859 47.2766 43.6406C47.7964 42.1953 47.7964 40.9547 47.6394 40.7016C47.4918 40.4281 47.0804 40.2719 46.4523 39.9594L46.4491 39.9609Z" fill="white"/>
</svg>
