<svg width="130" height="130" viewBox="0 0 130 130" fill="none" xmlns="http://www.w3.org/2000/svg">
<path d="M64.807 1.04204L4.62415 22.2219L14.1334 101.072L64.871 128.958L115.87 100.695L125.376 21.8471L64.807 1.04204Z" fill="#B3B3B3"/>
<path d="M119.373 26.4042L64.6669 7.7482V122.295L110.513 96.9221L119.373 26.4042Z" fill="#A6120D"/>
<path d="M11.376 26.7404L19.5274 97.2593L64.6659 122.295V7.74617L11.376 26.7404Z" fill="#DD1B16"/>
<path d="M79.7255 68.7273L64.6669 75.7697H48.7947L41.3329 94.4308L27.4564 94.6887L64.6669 11.9072L79.7255 68.7273ZM78.2691 65.1818L64.7664 38.4495L53.69 64.7217H64.6659L78.2691 65.1818Z" fill="#F2F2F2"/>
<path d="M64.6659 11.9072L64.7654 38.4495L77.3337 64.742H64.6933L64.6659 75.7524L82.1437 75.7697L90.3114 94.6908L103.59 94.9366L64.6659 11.9072Z" fill="#B3B3B3"/>
</svg>
