<svg width="130" height="130" viewBox="0 0 130 130" fill="none" xmlns="http://www.w3.org/2000/svg">
<path d="M113.047 33.1797L63.9922 4.94531C63.1797 4.4375 62.0625 4.23438 60.8438 4.23438C59.625 4.23438 58.5078 4.53906 57.6953 4.94531L8.94531 33.2812C7.21875 34.2969 6 36.8359 6 38.7656V95.3359C6 96.4531 6.20312 97.7734 7.01562 98.8906L115.484 35.9219C114.875 34.7031 113.961 33.7891 113.047 33.1797Z" fill="#9B4F96"/>
<path d="M6.71094 98.7891C7.21875 99.6016 7.92969 100.312 8.64063 100.719L57.5938 129.055C58.4062 129.562 59.5234 129.766 60.7422 129.766C61.9609 129.766 63.0781 129.461 63.8906 129.055L112.641 100.719C114.367 99.7031 115.586 97.1641 115.586 95.2344V38.6641C115.586 37.75 115.484 36.7344 114.977 35.8203L6.71094 98.7891Z" fill="#68217A"/>
<path d="M82.4766 79.2891C78.2109 86.8047 70.0859 91.8828 60.8438 91.8828C47.1328 91.8828 35.9609 80.7109 35.9609 67C35.9609 53.2891 47.1328 42.1172 60.8438 42.1172C70.0859 42.1172 78.2109 47.1953 82.4766 54.8125L95.6797 47.1953C88.7734 35.1094 75.7734 26.8828 60.8438 26.8828C38.7031 26.8828 20.7266 44.8594 20.7266 67C20.7266 89.1406 38.7031 107.117 60.8438 107.117C75.6719 107.117 88.6719 98.9922 95.5781 87.0078L82.4766 79.2891ZM94.3594 69.2344L95.2734 64.8672H91.0078V60.0938H96.1875L97.4062 53.7969H102.383L101.164 59.9922H105.023L106.242 53.7969H111.117L109.898 59.9922H112.336V64.7656H108.984L108.07 69.1328H112.336V73.9063H107.156L105.938 80H100.961L102.18 73.9063H98.3203L97.1016 80H92.2266L93.4453 73.9063H91.0078V69.1328H94.3594V69.2344ZM99.2344 69.2344H103.094L104.008 64.8672H100.148L99.2344 69.2344Z" fill="white"/>
</svg>
