<svg width="130" height="130" viewBox="0 0 130 130" fill="none" xmlns="http://www.w3.org/2000/svg">
<path d="M20.0103 117.504L10 5H120L109.98 117.487L64.9333 130L20.0103 117.504Z" fill="#1572B6"/>
<path d="M65.001 118.891L102.131 108.597L110.867 10.7372H65.001V118.891Z" fill="#33A9DC"/>
<path d="M65.001 52.2326H83.589L84.8727 37.8483H65.001V23.8012H100.225L99.8877 27.5702L96.4346 66.2797H65.001V52.2326Z" fill="white"/>
<path d="M65.0843 88.7138L65.0223 88.7321L49.3787 84.5081L48.3783 73.3048H34.2794L36.2466 95.3611L65.0203 103.347L65.0843 103.329V88.7138V88.7138Z" fill="#EBEBEB"/>
<path d="M82.3946 65.6855L80.7026 84.497L65.0356 88.726V103.341L93.8326 95.3601L94.0438 92.9866L96.4874 65.6855H82.3946Z" fill="white"/>
<path d="M65.0487 23.8012V37.8483H31.1187L30.8374 34.6917L30.1976 27.5702L29.8614 23.8012H65.0487V23.8012ZM65.001 52.2346V66.2817H49.5544L49.273 63.1252L48.6322 56.0036L48.297 52.2346H65.001V52.2346Z" fill="#EBEBEB"/>
</svg>
