<svg width="130" height="130" viewBox="0 0 130 130" fill="none" xmlns="http://www.w3.org/2000/svg">
<path d="M126.686 59.2902L70.7088 3.315C67.4873 0.0914062 62.2588 0.0914062 59.0322 3.315L47.4094 14.9398L62.1542 29.6847C65.582 28.5279 69.5104 29.3038 72.2414 32.0348C74.9867 34.7831 75.7565 38.7451 74.5713 42.184L88.7819 56.3956C92.2198 55.2104 96.1878 55.9762 98.9321 58.7265C102.771 62.5625 102.771 68.7812 98.9321 72.6192C98.0197 73.532 96.9365 74.256 95.7443 74.7501C94.5521 75.2441 93.2742 75.4983 91.9836 75.4983C90.6931 75.4983 89.4152 75.2441 88.223 74.7501C87.0308 74.256 85.9476 73.532 85.0352 72.6192C83.6646 71.2477 82.7302 69.5013 82.3498 67.5999C81.9694 65.6986 82.1599 63.7272 82.8974 61.9338L69.6455 48.682L69.6434 83.5595C70.6049 84.033 71.4828 84.6601 72.2424 85.4161C76.0795 89.2521 76.0795 95.4688 72.2424 99.3129C68.4044 103.149 62.1837 103.149 58.3497 99.3129C54.5127 95.4698 54.5127 89.2531 58.3497 85.4161C59.269 84.4953 60.3624 83.7669 61.5662 83.2731V48.0726C60.3614 47.5802 59.2677 46.8512 58.3497 45.9286C55.443 43.0239 54.7432 38.7583 56.2342 35.1873L41.6975 20.6507L3.31501 59.0312C1.76651 60.5802 0.896606 62.6808 0.896606 64.871C0.896606 67.0613 1.76651 69.1619 3.31501 70.7109L59.2932 126.686C62.5168 129.91 67.7432 129.91 70.9719 126.686L126.687 70.9709C128.235 69.4214 129.105 67.3206 129.105 65.1303C129.104 62.94 128.234 60.8393 126.686 59.2902Z" fill="#F34F29"/>
</svg>
