<svg width="130" height="130" viewBox="0 0 130 130" fill="none" xmlns="http://www.w3.org/2000/svg">
<path d="M20.0108 117.505L10 5H120L109.978 117.488L64.933 130L20.0108 117.505Z" fill="#E44D26"/>
<path d="M64.968 120.139L101.346 110.053L109.905 14.175H64.968V120.139Z" fill="#F16529"/>
<path d="M64.968 55.794H46.756L45.498 41.7H64.968V27.938H30.457L30.787 31.63L34.169 69.557H64.968V55.794ZM64.968 91.537L64.907 91.554L49.58 87.414L48.601 76.439H34.784L36.712 98.048L64.905 105.874L64.968 105.857V91.537Z" fill="#EBEBEB"/>
<path d="M64.92 55.794V69.557H81.867L80.27 87.406L64.92 91.549V105.868L93.135 98.048L93.342 95.723L96.576 59.49L96.911 55.794H93.203H64.92ZM64.92 27.938V41.7H98.164L98.44 38.608L99.068 31.63L99.397 27.938H64.92Z" fill="white"/>
</svg>
