<svg width="130" height="130" viewBox="0 0 130 130" fill="none" xmlns="http://www.w3.org/2000/svg">
<path d="M1.43 1.43H128.57V128.571H1.43V1.43Z" fill="#F0DB4F"/>
<path d="M118.165 98.2475C117.234 92.4473 113.451 87.5753 102.248 83.0324C98.3562 81.2439 94.0174 79.9632 92.7245 77.0138C92.2655 75.2974 92.2045 74.3306 92.495 73.2916C93.3288 69.9197 97.3538 68.8685 100.544 69.8354C102.598 70.524 104.543 72.1073 105.716 74.6332C111.203 71.0806 111.192 71.1039 115.023 68.6623C113.62 66.4879 112.871 65.4845 111.953 64.5541C108.654 60.8684 104.157 58.9702 96.9668 59.1155L93.2212 59.5999C89.632 60.5069 86.2113 62.3909 84.2055 64.9167C78.1869 71.7458 79.9033 83.6977 87.227 88.6163C94.442 94.0316 105.041 95.2636 106.395 100.327C107.712 106.527 101.839 108.534 96.0009 107.821C91.6988 106.926 89.3059 104.739 86.7191 100.763C81.9579 103.519 81.9579 103.519 77.0626 106.334C78.2234 108.872 79.4432 110.021 81.3891 112.219C90.5988 121.561 113.645 121.102 117.779 106.963C117.947 106.477 119.06 103.239 118.165 98.2475ZM70.5473 59.864H58.6554L58.6066 90.609C58.6066 97.1476 58.9448 103.142 57.8815 104.979C56.1417 108.593 51.6334 108.145 49.5788 107.444C47.4876 106.416 46.4242 104.955 45.1923 102.889C44.8541 102.296 44.6002 101.837 44.5149 101.801L34.8461 107.722C36.4538 111.022 38.8223 113.886 41.8559 115.747C46.3877 118.467 52.4784 119.3 58.8484 117.838C62.9941 116.63 66.5712 114.129 68.444 110.321C71.1516 105.329 70.5707 99.2875 70.5463 92.6047C70.6073 81.702 70.5473 70.8013 70.5473 59.864Z" fill="#323330"/>
</svg>
