<svg width="130" height="130" viewBox="0 0 130 130" fill="none" xmlns="http://www.w3.org/2000/svg">
<path d="M65 33.5552C30.7328 33.5552 2.95142 47.6338 2.95142 65C2.95142 82.3662 30.7328 96.4448 65 96.4448C99.2672 96.4448 127.049 82.3662 127.049 65C127.049 47.6338 99.2672 33.5552 65 33.5552ZM48.8546 71.1262C47.3738 72.5116 45.7295 73.0834 43.9187 73.6724C42.1078 74.2625 39.8034 74.1406 37.0013 74.1406H30.6506L28.8905 84.2969H21.4754L28.0922 49.7656H42.3516C46.6416 49.7656 49.7707 50.9996 51.738 53.2512C53.7052 55.5029 54.2963 58.6991 53.5123 62.7341C53.1883 64.3967 52.6429 65.9425 51.8731 67.3197C51.0753 68.7407 50.0564 70.0256 48.8546 71.1262ZM70.4986 74.1406L73.4246 59.4953C73.7577 57.7809 73.6359 56.5073 73.058 55.8848C72.4791 55.2612 71.2481 54.8438 69.3662 54.8438H63.4857L59.6964 74.1406H52.3392L58.956 40.625H66.3132L64.5542 49.7656H71.108C75.2324 49.7656 78.0762 50.5934 79.6413 52.0315C81.2063 53.4696 81.6756 55.4399 81.0499 58.6615L77.9716 74.1406H70.4986ZM111.387 62.788C111.064 64.4505 110.517 65.9699 109.748 67.3461C108.979 68.7243 107.973 69.9847 106.731 71.1262C105.25 72.5116 103.605 73.0834 101.795 73.6724C99.9852 74.2625 97.6788 74.1406 94.8767 74.1406H88.5259L86.7669 84.2969H79.3518L85.9676 49.7656H100.228C104.518 49.7656 107.647 50.9996 109.613 53.2512C111.579 55.5029 112.171 58.7539 111.387 62.788ZM97.4177 54.8438H92.3386L89.569 69.0625H94.0804C97.0684 69.0625 99.2967 68.768 100.759 67.6406C102.224 66.5153 103.21 64.7684 103.723 62.1349C104.214 59.605 103.991 57.6316 103.052 56.5916C102.113 55.5516 100.235 54.8438 97.4177 54.8438ZM39.5424 54.8438H34.4622L31.6926 69.0625H36.203C39.192 69.0625 41.4192 68.768 42.8827 67.6406C44.3463 66.5153 45.3335 64.7684 45.8453 62.1349C46.3369 59.605 46.1134 57.6316 45.175 56.5916C44.2366 55.5516 42.3597 54.8438 39.5424 54.8438Z" fill="#6181B6"/>
</svg>
