<svg width="130" height="130" viewBox="0 0 130 130" fill="none" xmlns="http://www.w3.org/2000/svg">
<path d="M65 57.0655C70.55 57.0655 75.0491 52.8739 75.0491 47.7034C75.0491 42.5328 70.55 38.3412 65 38.3412C59.45 38.3412 54.9509 42.5328 54.9509 47.7034C54.9509 52.8739 59.45 57.0655 65 57.0655Z" fill="#61DAFB"/>
<path d="M65 82.1319C72.888 89.2794 80.668 93.5074 86.9352 93.5074C88.9882 93.5074 90.9332 93.1047 92.554 92.1987C98.1729 89.1787 100.226 81.6286 98.2809 70.8571C97.9568 68.9444 97.5246 67.0317 96.9843 65.0183C99.1454 64.4143 101.09 63.8103 103.035 63.2063C113.949 59.2802 120 53.8441 120 47.9047C120 41.8646 113.949 36.4285 103.035 32.6031C101.09 31.8985 99.1454 31.2945 96.9843 30.7911C97.5246 28.7777 97.9568 26.8651 98.2809 24.9524C100.118 13.9795 98.0648 6.32873 92.446 3.30869C90.8251 2.40267 88.8802 2 86.8271 2C80.668 2 72.78 6.22806 64.8919 13.3755C57.112 6.22806 49.332 2 43.0648 2C41.0118 2 39.0668 2.40267 37.446 3.30869C31.8271 6.32873 29.7741 13.8789 31.7191 24.6504C32.0432 26.563 32.4754 28.4757 33.0157 30.4891C30.8546 31.0931 28.9096 31.6971 26.9646 32.3011C16.0511 36.2272 10 41.6633 10 47.6027C10 53.6428 16.0511 59.0789 26.9646 62.9043C28.9096 63.609 30.8546 64.213 33.0157 64.7163C32.4754 66.7297 32.0432 68.6424 31.7191 70.5551C29.8821 81.3266 31.9352 88.9774 37.446 91.8967C39.0668 92.8027 41.0118 93.2054 43.0648 93.2054C49.332 93.4067 57.112 89.1787 65 82.1319ZM58.9489 68.5417C60.8939 68.6424 62.947 68.6424 65 68.6424C67.053 68.6424 69.1061 68.6424 71.0511 68.5417C69.1061 70.9577 67.053 73.1724 65 75.2865C62.947 73.1724 60.8939 70.9577 58.9489 68.5417V68.5417ZM45.5501 58.1729C46.6306 59.8842 47.6031 61.4949 48.7917 63.1056C45.442 62.7029 42.3084 62.1996 39.2829 61.5956C40.2554 58.8775 41.336 56.0588 42.6326 53.2401C43.4971 54.8508 44.4695 56.5622 45.5501 58.1729V58.1729ZM39.2829 33.9118C42.3084 33.3078 45.442 32.8045 48.7917 32.4018C47.7112 34.0125 46.6306 35.6232 45.5501 37.3346C44.4695 39.0459 43.4971 40.6566 42.6326 42.368C41.2279 39.4486 40.1473 36.6299 39.2829 33.9118V33.9118ZM45.2259 47.7034C46.6306 44.9853 48.1434 42.2673 49.8723 39.5493C51.4931 36.9319 53.3301 34.3145 55.167 31.6971C58.4086 31.4958 61.6503 31.3951 65 31.3951C68.4578 31.3951 71.6994 31.4958 74.833 31.6971C76.778 34.3145 78.5069 36.9319 80.1277 39.5493C81.8566 42.2673 83.3694 44.9853 84.7741 47.7034C83.3694 50.4214 81.8566 53.1395 80.1277 55.8575C78.5069 58.4749 76.6699 61.0923 74.833 63.7096C71.5914 63.911 68.3497 64.0116 65 64.0116C61.5422 64.0116 58.3006 63.911 55.167 63.7096C53.222 61.0923 51.4931 58.4749 49.8723 55.8575C48.1434 53.1395 46.6306 50.4214 45.2259 47.7034V47.7034ZM87.4754 42.2673L84.558 37.2339C83.4774 35.5225 82.5049 33.9118 81.3163 32.3011C84.666 32.7038 87.7996 33.2072 90.8251 33.8112C89.8527 36.6299 88.7721 39.4486 87.4754 42.2673ZM87.4754 53.1395C88.7721 55.9582 89.8527 58.7769 90.8251 61.4949C87.7996 62.0989 84.666 62.6023 81.3163 63.0049C82.3969 61.3943 83.4774 59.7836 84.558 58.0722C85.5305 56.5622 86.503 54.8508 87.4754 53.1395ZM89.9607 88.0713C89.0963 88.5747 88.0157 88.776 86.8271 88.776C81.5324 88.776 74.9411 84.7493 68.4578 78.7092C71.5914 75.5885 74.6169 72.0651 77.6424 68.139C82.721 67.7364 87.5835 67.0317 92.1218 66.025C92.6621 67.837 92.9862 69.649 93.3104 71.4611C94.8232 80.0179 93.6346 86.1586 89.9607 88.0713V88.0713ZM95.5796 35.0192C107.682 38.2406 114.921 43.1733 114.921 47.7034C114.921 51.6294 109.951 55.5555 101.198 58.6762C99.4695 59.2802 97.5246 59.8842 95.5796 60.3876C94.1749 56.2602 92.446 52.0321 90.2849 47.7034C92.446 43.3746 94.2829 39.1466 95.5796 35.0192ZM86.9352 6.63074C88.1238 6.63074 89.0963 6.83208 90.0688 7.33542C93.6346 9.24811 94.9312 15.2882 93.4185 23.9457C93.0943 25.657 92.6621 27.4691 92.2299 29.3818C87.6915 28.4757 82.8291 27.7711 77.7505 27.2677C74.833 23.3417 71.6994 19.8183 68.5658 16.6976C75.0491 10.7581 81.6405 6.63074 86.9352 6.63074V6.63074ZM71.0511 26.8651C69.1061 26.7644 67.053 26.7644 65 26.7644C62.947 26.7644 60.8939 26.7644 58.9489 26.8651C60.8939 24.449 62.947 22.2343 65 20.1203C67.053 22.2343 69.1061 24.5497 71.0511 26.8651ZM40.0393 7.33542C40.9037 6.83208 41.9843 6.63074 43.1729 6.63074C48.4676 6.63074 55.0589 10.6575 61.5422 16.6976C58.4086 19.8183 55.3831 23.3417 52.3576 27.2677C47.279 27.6704 42.4165 28.3751 37.8782 29.3818C37.3379 27.5697 37.0138 25.7577 36.6896 23.9457C35.1768 15.3889 36.3654 9.34878 40.0393 7.33542V7.33542ZM34.4204 60.3876C22.3183 57.1662 15.0786 52.2334 15.0786 47.7034C15.0786 43.7773 20.0491 39.8513 28.8016 36.7305C30.5305 36.1265 32.4754 35.5225 34.4204 35.0192C35.8251 39.1466 37.554 43.3746 39.7151 47.7034C37.554 52.0321 35.7171 56.3608 34.4204 60.3876V60.3876ZM36.6896 71.4611C37.0138 69.7497 37.446 67.9377 37.8782 66.025C42.4165 66.931 47.279 67.6357 52.3576 68.139C55.275 72.0651 58.4086 75.5885 61.5422 78.7092C55.0589 84.6486 48.4676 88.776 43.1729 88.776C41.9843 88.776 41.0118 88.5747 40.0393 88.0713C36.3654 86.1586 35.1768 80.0179 36.6896 71.4611V71.4611ZM32.1513 112.936C34.5285 110.218 34.6365 107.198 33.3399 104.178C32.0432 101.158 29.3418 99.7488 25.9921 99.6482C21.9941 99.5475 17.888 99.6482 13.89 99.6482H13.1336V125.721H16.3752V115.856H21.4538C22.1022 115.856 22.6424 116.057 22.9666 116.56L29.4499 125.923C29.558 126.124 29.8821 126.426 30.0982 126.426H34.3124C31.7191 122.701 29.2338 119.178 26.6405 115.554C28.9096 115.252 30.8546 114.547 32.1513 112.936V112.936ZM16.3752 112.735V102.769H17.5639C20.0491 102.769 22.6424 102.668 25.1277 102.87C28.0452 102.97 30.0982 105.084 30.0982 107.802C30.0982 110.52 27.721 112.634 24.8035 112.735C22.2102 112.836 19.6169 112.735 16.3752 112.735V112.735ZM58.1925 114.044C56.4637 106.997 49.5481 105.185 44.2534 107.4C40.1473 109.111 38.3104 112.433 38.2024 116.56C38.0943 119.681 39.0668 122.5 41.6601 124.614C44.5776 127.03 48.1434 127.332 51.8173 126.728C53.8703 126.325 55.7073 125.419 57.112 124.01C56.5717 123.305 56.0314 122.601 55.4912 121.997C52.4656 124.413 49.1159 125.218 45.442 123.607C43.0648 122.5 41.8762 119.782 41.6601 117.768H58.4086V116.46C58.5167 115.554 58.4086 114.748 58.1925 114.044V114.044ZM41.8762 115.654C41.5521 112.634 44.7937 109.413 48.3595 109.413C52.4656 109.312 55.0589 111.628 55.167 115.654H41.8762ZM75.0491 106.896C73.4283 106.594 71.6994 106.494 70.0786 106.594C67.4853 106.796 65.2161 107.903 63.3792 109.715C63.9195 110.42 64.3517 111.124 65 111.93C65.2161 111.728 65.4322 111.527 65.6483 111.426C67.3772 109.916 69.4303 109.111 71.9155 109.312C73.8605 109.413 75.6974 110.017 76.2377 111.829C76.6699 113.238 76.5619 114.748 76.6699 116.258C76.3458 116.258 76.2377 116.158 76.1297 116.057C73.5363 114.044 70.6189 113.641 67.4853 114.346C64.5678 115.05 62.7308 117.164 62.5147 119.882C62.2986 123.003 63.8114 125.319 66.7289 126.426C68.5658 127.131 70.6189 127.131 72.5639 126.728C74.0766 126.426 74.725 125.621 76.8861 124.513V125.822H79.9116C79.9116 121.795 80.0196 116.862 79.9116 112.232C79.9116 109.312 78.0747 107.5 75.0491 106.896ZM76.5619 119.58C76.4538 119.882 76.5619 120.185 76.5619 120.487C76.5619 122.601 76.0216 123.305 73.8605 124.111C72.3477 124.614 70.7269 124.815 69.1061 124.312C67.2692 123.809 65.9725 122.299 65.9725 120.587C65.8644 118.876 67.053 117.164 68.89 116.661C71.3752 115.856 73.6444 116.359 75.6974 117.768C76.3458 118.272 76.778 118.775 76.5619 119.58V119.58ZM93.4185 109.614C96.2279 108.809 98.8212 109.312 100.766 111.527L101.09 111.728C101.847 111.124 102.495 110.52 103.36 109.816C103.035 109.514 102.927 109.312 102.711 109.01C99.5776 105.89 93.4185 105.487 89.6365 108.004C84.3418 111.628 84.4499 118.674 87.0432 122.399C89.5285 125.923 93.0943 127.131 97.3084 126.627C99.7937 126.325 101.847 125.218 103.468 123.305C102.711 122.701 101.955 122.097 101.198 121.393C100.982 121.594 100.874 121.695 100.766 121.896C97.8487 124.916 92.9862 124.614 90.3929 121.393C88.8802 119.48 88.556 117.265 88.9882 115.05C89.2043 112.534 90.609 110.52 93.4185 109.614ZM115.894 123.305C115.678 123.406 115.57 123.507 115.57 123.507C114.705 124.111 113.841 124.211 112.868 123.909C111.896 123.507 111.788 122.701 111.68 121.896V110.42C111.68 110.218 111.68 110.621 111.788 109.614H115.894V106.594H111.572V101.561H108.33V106.997H105.521C105.305 106.997 104.98 107.198 104.98 107.4C104.872 108.104 104.98 108.608 104.98 109.614H108.438V122.5C108.438 124.111 108.87 125.52 110.383 126.325C112.004 127.231 115.138 127.03 116.542 125.923C116.758 125.822 116.866 125.419 116.866 125.319C116.542 124.715 116.218 124.01 115.894 123.305V123.305Z" fill="#61DAFB"/>
</svg>
