<svg width="130" height="130" viewBox="0 0 130 130" fill="none" xmlns="http://www.w3.org/2000/svg">
<path d="M1.72656 100.141C1.11719 99.8359 0.710938 99.125 0.710938 98.3125C0.710938 97.0938 1.625 96.1797 2.84375 96.1797C3.25 96.1797 3.65625 96.2812 3.96094 96.4844C6.19531 98.0078 8.63281 98.7187 10.7656 98.7187C13.1016 98.7187 14.4219 97.7031 14.4219 96.1797V96.0781C14.4219 94.25 11.8828 93.6406 9.14062 92.8281C5.6875 91.8125 1.82812 90.3906 1.82812 85.9219V85.8203C1.82812 81.3516 5.48438 78.7109 10.1562 78.7109C12.6953 78.7109 15.2344 79.4219 17.5703 80.6406C18.2812 81.0469 18.8906 81.7578 18.8906 82.6719C18.8906 83.8906 17.875 84.8047 16.6562 84.8047C16.25 84.8047 15.9453 84.7031 15.5391 84.5C13.6094 83.4844 11.6797 82.875 10.0547 82.875C7.92188 82.875 6.80469 83.8906 6.80469 85.2109V85.3125C6.80469 87.0391 9.34375 87.75 12.0859 88.6641C15.5391 89.6797 19.3984 91.3047 19.3984 95.4688V95.5703C19.3984 100.547 15.5391 102.984 10.6641 102.984C7.71875 102.984 4.46875 102.07 1.72656 100.141ZM40.4219 90.8984C40.4219 86.3281 37.375 83.3828 33.7188 83.3828C30.0625 83.3828 26.9141 86.4297 26.9141 90.8984V91C26.9141 95.4688 30.0625 98.5156 33.7188 98.5156C37.375 98.3125 40.4219 95.4688 40.4219 90.8984ZM21.7344 81.4531C21.7344 79.9297 22.8516 78.7109 24.375 78.7109C25.8984 78.7109 27.1172 79.9297 27.1172 81.4531V83.0781C28.8438 80.6406 31.2812 78.7109 35.0391 78.7109C40.5234 78.7109 45.9062 83.0781 45.9062 90.7969V90.8984C45.9062 98.6172 40.625 102.984 35.0391 102.984C31.1797 102.984 28.7422 101.055 27.1172 98.9219V107.148C27.1172 108.672 25.8984 109.789 24.375 109.789C22.9531 109.789 21.7344 108.672 21.7344 107.148V81.4531ZM48.1406 81.3516C48.1406 79.8281 49.2578 78.6094 50.7812 78.6094C52.3047 78.6094 53.5234 79.8281 53.5234 81.3516V82.6719C53.8281 80.6406 57.0781 78.7109 59.4141 78.7109C61.1406 78.7109 62.0547 79.8281 62.0547 81.3516C62.0547 82.7734 61.1406 83.6875 59.9219 83.8906C56.0625 84.6016 53.4219 87.8516 53.4219 92.5234V100.242C53.4219 101.664 52.2031 102.883 50.6797 102.883C49.2578 102.883 48.0391 101.766 48.0391 100.242V81.3516H48.1406ZM64.4922 81.3516C64.4922 79.8281 65.7109 78.6094 67.2344 78.6094C68.7578 78.6094 69.9766 79.8281 69.9766 81.3516V100.242C69.9766 101.766 68.7578 102.883 67.2344 102.883C65.7109 102.883 64.4922 101.766 64.4922 100.242V81.3516ZM72.3125 81.4531C72.3125 79.9297 73.5313 78.7109 75.0547 78.7109C76.5781 78.7109 77.8984 79.9297 77.8984 81.4531V82.5703C79.4219 80.4375 81.7578 78.7109 85.5156 78.7109C91 78.7109 94.1484 82.2656 94.1484 87.6484V100.242C94.1484 101.766 92.9297 102.883 91.4062 102.883C89.8828 102.883 88.5625 101.766 88.5625 100.242V89.2734C88.5625 85.6172 86.6328 83.5859 83.3828 83.5859C80.1328 83.5859 77.8984 85.7188 77.8984 89.375V100.242C77.8984 101.766 76.6797 102.883 75.0547 102.883C73.5313 102.883 72.3125 101.766 72.3125 100.242V81.4531ZM108.164 98.4141C104.406 98.4141 101.258 95.5703 101.258 90.8984V90.7969C101.258 86.2266 104.406 83.2812 108.164 83.2812C111.922 83.2812 115.172 86.3281 115.172 90.7969V90.8984C115.172 95.3672 111.922 98.4141 108.164 98.4141ZM117.812 78.8125C116.289 78.8125 115.07 80.0312 115.07 81.5547V83.1797C113.242 80.7422 110.805 78.8125 106.844 78.8125C101.156 78.8125 95.6719 83.1797 95.6719 91V91.1016C95.6719 98.8203 101.156 103.289 106.844 103.289C110.805 103.289 113.344 101.359 115.07 99.2266C114.766 103.492 112.125 105.625 107.453 105.625C104.711 105.625 102.273 104.914 100.039 103.797C99.7344 103.695 99.4297 103.594 99.0234 103.594C97.7031 103.594 96.6875 104.609 96.6875 105.828C96.6875 106.844 97.2969 107.555 98.2109 107.961C101.156 109.383 104.102 110.094 107.555 110.094C111.922 110.094 115.273 109.078 117.508 106.945C119.539 105.016 120.656 102.07 120.656 98.1094V81.4531C120.555 79.9297 119.336 78.8125 117.812 78.8125ZM69.9766 72.2109C69.9766 73.6328 68.7578 74.8516 67.2344 74.8516C65.7109 74.8516 64.4922 73.6328 64.4922 72.2109C64.4922 70.7891 65.7109 69.5703 67.2344 69.5703C68.7578 69.5703 69.9766 70.7891 69.9766 72.2109ZM84.1953 54.6406C78.2031 62.5625 65.3047 59.9219 56.9766 60.2266C56.9766 60.2266 55.5547 60.3281 54.0312 60.5312C54.0312 60.5312 54.6406 60.3281 55.25 60.0234C61.0391 58.0937 63.7813 57.6875 67.3359 55.8594C73.9375 52.5078 80.5391 45.2969 81.8594 37.7813C79.3203 44.9922 71.7031 51.1875 64.6953 53.7266C59.9219 55.4531 51.2891 57.0781 51.2891 57.0781L50.9844 56.875C45.0938 54.1328 44.8906 41.6406 55.6562 37.6797C60.3281 35.9531 64.7969 36.8672 69.875 35.75C75.2578 34.5313 81.5547 30.5703 84.0938 25.3906C86.9375 33.8203 90.3906 46.7188 84.1953 54.6406ZM84.2969 22.9531C83.5859 24.5781 82.6719 26.1016 81.6563 27.4219C77.1875 22.9531 70.9922 20.2109 64.0859 20.2109C50.5781 20.2109 39.6094 30.9766 39.6094 44.0781C39.6094 50.9844 42.6562 57.1797 47.4297 61.5469L47.9375 62.0547C47.0234 61.3437 46.9219 60.0234 47.6328 59.2109C48.3438 58.2969 49.6641 58.1953 50.5781 58.9062C51.4922 59.6172 51.5937 60.9375 50.8828 61.75C50.1719 62.6641 48.8516 62.7656 47.9375 62.0547L48.3437 62.3594C52.6094 65.8125 58.0937 67.9453 64.0859 67.9453C76.9844 67.9453 87.5469 58.0938 88.4609 45.8047C89.2734 39.8125 87.4453 32.0938 84.2969 22.9531ZM127.055 80.4375H126.141V81.6562H127.055C127.359 81.6562 127.664 81.4531 127.664 81.0469C127.664 80.6406 127.359 80.4375 127.055 80.4375ZM127.562 83.4844L126.648 82.0625H126.039V83.4844H125.531V80.0312H126.953C127.562 80.0312 128.07 80.4375 128.07 81.0469C128.07 81.8594 127.359 82.0625 127.156 82.0625L128.07 83.4844H127.562ZM126.75 79.1172C125.328 79.1172 124.109 80.2344 124.109 81.6562C124.109 83.0781 125.328 84.1953 126.75 84.1953C128.172 84.1953 129.391 83.0781 129.391 81.6562C129.391 80.3359 128.172 79.1172 126.75 79.1172ZM126.75 84.8047C125.023 84.8047 123.602 83.4844 123.602 81.7578C123.602 80.0312 125.023 78.7109 126.75 78.7109C128.477 78.7109 129.898 80.0312 129.898 81.7578C129.898 83.3828 128.477 84.8047 126.75 84.8047Z" fill="#5FB832"/>
</svg>
