<svg width="130" height="130" viewBox="0 0 130 130" fill="none" xmlns="http://www.w3.org/2000/svg">
<path d="M23.0242 47.7344H124.252V122.555H23.0242V47.7344Z" fill="white"/>
<path d="M1.52344 64.9086V128.385H128.477V1.43203H1.52344V64.9086ZM103.827 59.8305C106.868 60.5361 109.632 62.1264 111.77 64.4008C112.946 65.6261 113.97 66.9903 114.816 68.4633C114.816 68.6258 109.332 72.3328 105.991 74.4047C105.869 74.4859 105.381 73.9578 104.843 73.1555C104.233 72.1029 103.366 71.2221 102.324 70.5952C101.281 69.9683 100.097 69.6157 98.8812 69.5703C95.032 69.3063 92.5539 71.3273 92.5742 74.6484C92.5424 75.4753 92.7317 76.2957 93.1227 77.025C93.9656 78.782 95.5398 79.8281 100.476 81.9609C109.566 85.8711 113.455 88.4508 115.873 92.1172C118.574 96.1797 119.173 102.741 117.345 107.595C115.314 112.877 110.338 116.462 103.299 117.65C100.085 118.018 96.8366 117.984 93.6305 117.548C88.7165 116.738 84.1901 114.379 80.7117 110.815C79.5438 109.525 77.2688 106.163 77.4109 105.92C77.7817 105.644 78.1721 105.397 78.5789 105.178L83.2812 102.578L86.9273 100.466L87.6891 101.593C88.9746 103.432 90.6106 104.999 92.5031 106.204C96.5656 108.337 102.111 108.042 104.853 105.574C105.774 104.67 106.348 103.471 106.476 102.187C106.604 100.903 106.278 99.6145 105.554 98.5461C104.538 97.1344 102.507 95.9461 96.8297 93.468C90.2789 90.6445 87.4555 88.8977 84.8758 86.1149C83.2653 84.2785 82.0763 82.1119 81.3922 79.7672C80.8819 77.0884 80.8064 74.3449 81.1687 71.6422C82.5195 65.3148 87.2625 60.8969 94.1891 59.5867C97.3968 59.1898 100.646 59.2788 103.827 59.8508V59.8305ZM74.0289 65.1524V70.3523H57.5453V117.305H45.8555V70.3422H29.3312V65.2641C29.2798 63.5129 29.3205 61.7602 29.4531 60.0133C29.5344 59.9219 39.6094 59.9219 51.7969 59.9219H73.968L74.0289 65.1524Z" fill="#007ACC"/>
</svg>
